<?xml version="1.0" encoding="utf-8"?>
<!-- Generator: Adobe Illustrator 24.0.1, SVG Export Plug-In . SVG Version: 6.00 Build 0)  -->
<svg version="1.1" id="Layer_1" xmlns="http://www.w3.org/2000/svg" xmlns:xlink="http://www.w3.org/1999/xlink" x="0px" y="0px"
	 viewBox="0 0 32.3 22" style="enable-background:new 0 0 32.3 22;" xml:space="preserve">
<style type="text/css">
	.st0{fill:#00B98B;}
</style>
<path class="st0" d="M26.4,16.1c-0.8,0-1.5,0.3-2.1,0.9c-1.2,1.1-1.2,3,0,4.1c0,0,0,0,0,0c0.6,0.6,1.3,0.9,2.1,0.9c1.6,0,3-1.3,3-3
	C29.3,17.4,28,16.1,26.4,16.1L26.4,16.1L26.4,16.1z M26.4,20.7c-0.9,0-1.6-0.7-1.6-1.6s0.7-1.6,1.6-1.6S28,18.1,28,19
	S27.3,20.7,26.4,20.7z M27.1,6.2c-0.1-0.1-0.3-0.2-0.4-0.2h-3.4c-0.4,0-0.7,0.3-0.7,0.7v5.4c0,0.4,0.3,0.7,0.7,0.7h5.3
	c0.4,0,0.7-0.3,0.7-0.7V8.5c0-0.2-0.1-0.4-0.2-0.5L27.1,6.2z M28,11.5h-4V7.4h2.5L28,8.8V11.5z M10.3,16.1c-0.8,0-1.5,0.3-2.1,0.9
	c-1.2,1.1-1.2,3,0,4.1c0,0,0,0,0,0c0.6,0.6,1.3,0.9,2.1,0.9c1.6,0,3-1.3,3-3C13.3,17.4,12,16.1,10.3,16.1L10.3,16.1z M10.3,20.7
	c-0.9,0-1.6-0.7-1.6-1.6s0.7-1.6,1.6-1.6S12,18.1,12,19S11.2,20.7,10.3,20.7z M6,16.9H4.6v-1.7c0-0.4-0.3-0.7-0.7-0.7
	s-0.7,0.3-0.7,0.7v2.4c0,0.4,0.3,0.7,0.7,0.7h2c0.4,0,0.7-0.3,0.7-0.7C6.6,17.2,6.3,16.9,6,16.9z M9.3,13.3c0-0.4-0.3-0.7-0.7-0.7
	h-8c-0.4,0-0.7,0.3-0.7,0.7C0,13.7,0.3,14,0.7,14h8C9,14,9.3,13.7,9.3,13.3L9.3,13.3L9.3,13.3z M2,10.9l8,0c0.4,0,0.7-0.3,0.7-0.7
	c0-0.4-0.3-0.7-0.6-0.7c0,0,0,0,0,0l-8,0l0,0c-0.4,0-0.7,0.3-0.7,0.7S1.6,10.9,2,10.9L2,10.9z M3.3,8h8C11.7,8,12,7.7,12,7.3
	c0-0.4-0.3-0.7-0.7-0.7h-8C3,6.6,2.7,6.9,2.7,7.3C2.7,7.7,3,8,3.3,8z M32,7.1L32,7.1l-4.7-3.9C27.2,3.1,27.1,3,26.9,3h-5.5V0.6
	c0-0.4-0.3-0.7-0.7-0.7H4C3.6,0,3.3,0.3,3.3,0.6v4.8c0,0.4,0.3,0.7,0.7,0.7c0.4,0,0.7-0.3,0.7-0.7V1.3h15.4v15.6h-5.4
	c-0.4,0-0.7,0.3-0.7,0.7c0,0.4,0.3,0.7,0.7,0.7h8c0.4,0,0.7-0.3,0.7-0.7c0-0.4-0.3-0.7-0.7-0.7h-1.3V4.3h5.3L31,7.9l0,9h-0.7
	c-0.4,0-0.7,0.3-0.7,0.7c0,0.4,0.3,0.7,0.7,0.7h1.3c0.4,0,0.7-0.3,0.7-0.6c0,0,0,0,0,0l0.1-10C32.3,7.4,32.2,7.2,32,7.1L32,7.1z"/>
</svg>
