<?xml version="1.0" encoding="utf-8"?>
<!-- Generator: Adobe Illustrator 24.0.1, SVG Export Plug-In . SVG Version: 6.00 Build 0)  -->
<svg version="1.1" id="Layer_1" xmlns="http://www.w3.org/2000/svg" xmlns:xlink="http://www.w3.org/1999/xlink" x="0px" y="0px"
	 viewBox="0 0 20.4 24" style="enable-background:new 0 0 20.4 24;" xml:space="preserve">
<style type="text/css">
	.st0{fill:#00B98B;}
</style>
<g transform="translate(-38.25)">
	<g transform="translate(38.25)">
		<path class="st0" d="M10.2,24c1.3,0,2.4-1.1,2.4-2.4H7.8C7.8,22.9,8.9,24,10.2,24z M18,16.8v-6.6c0-3.6-2.5-6.8-6-7.6V1.8
			c0-1-0.8-1.8-1.8-1.8c-1,0-1.8,0.8-1.8,1.8c0,0,0,0,0,0v0.8c-3.5,0.8-6,3.9-6,7.6v6.6L0,19.2v1.2h20.4v-1.2L18,16.8z M15.6,18H4.8
			v-7.8c0-3,2.4-5.4,5.4-5.4s5.4,2.4,5.4,5.4c0,0,0,0,0,0V18z"/>
	</g>
</g>
</svg>
