<svg xmlns="http://www.w3.org/2000/svg" width="20.959" height="22" viewBox="0 0 20.959 22"><defs><style>.a{fill:#00b98b;}</style></defs><g transform="translate(0 -0.43)"><path class="a" d="M18.412,16.627H.748A.851.851,0,0,1,0,15.7a.851.851,0,0,1,.748-.924H18.412a.851.851,0,0,1,.748.924A.851.851,0,0,1,18.412,16.627Zm0-7.39H.748A.851.851,0,0,1,0,8.314.851.851,0,0,1,.748,7.39H18.412a.851.851,0,0,1,.748.924A.851.851,0,0,1,18.412,9.237Zm0-7.39H8.135A5.566,5.566,0,0,0,8.763,0h9.649a.851.851,0,0,1,.748.924A.851.851,0,0,1,18.412,1.847Z" transform="translate(1.798 5.803)"/><path class="a" d="M4.911,9.822a4.911,4.911,0,1,1,4.91-4.91A4.916,4.916,0,0,1,4.911,9.822Zm-2.1-5.468v.515H4.354V6.416h.511V4.868H6.416V4.354H4.865V2.806H4.354V4.354Z" transform="translate(0 0.43)"/></g></svg>