<?xml version="1.0" encoding="utf-8"?>
<!-- Generator: Adobe Illustrator 24.0.1, SVG Export Plug-In . SVG Version: 6.00 Build 0)  -->
<svg version="1.1" id="Layer_1" xmlns="http://www.w3.org/2000/svg" xmlns:xlink="http://www.w3.org/1999/xlink" x="0px" y="0px"
	 viewBox="0 0 23 26" style="enable-background:new 0 0 23 26;" xml:space="preserve">
<style type="text/css">
	.st0{fill:none;stroke:#00B98B;stroke-width:2;}
</style>
<g transform="translate(2.322 3)">
	<path class="st0" d="M9,8.6c1.4,0,2.8-0.5,3.7-1.6c1-1,1.6-2.3,1.6-3.7c0-1.4-0.5-2.8-1.6-3.7c-2.1-2.1-5.4-2.1-7.5,0
		c-1,1-1.6,2.3-1.6,3.7c0,1.4,0.5,2.8,1.6,3.7C6.3,8.1,7.6,8.6,9,8.6z"/>
	<path class="st0" d="M19.6,16.9c0-0.5-0.1-0.9-0.2-1.4c-0.1-0.5-0.2-0.9-0.4-1.4c-0.2-0.5-0.4-0.9-0.7-1.3c-0.3-0.4-0.6-0.8-1-1.1
		c-0.4-0.3-0.9-0.6-1.4-0.8c-0.6-0.2-1.2-0.3-1.8-0.3c-0.4,0-0.7,0.2-1,0.4c-0.3,0.2-0.6,0.4-1,0.6c-0.4,0.2-0.9,0.4-1.3,0.5
		c-1.1,0.3-2.2,0.3-3.2,0c-0.5-0.1-0.9-0.3-1.3-0.5c-0.4-0.2-0.7-0.4-1-0.6c-0.3-0.2-0.6-0.3-1-0.4c-0.6,0-1.2,0.1-1.8,0.3
		c-0.5,0.2-1,0.4-1.4,0.8c-0.4,0.3-0.7,0.7-1,1.1c-0.3,0.4-0.5,0.8-0.7,1.3c-0.2,0.5-0.3,0.9-0.4,1.4c-0.1,0.5-0.2,0.9-0.2,1.4
		c0,0.4,0,0.9,0,1.3c0,1.1,0.4,2.1,1.2,2.8c0.9,0.7,2,1.1,3.2,1h12.1c1.2,0.1,2.3-0.3,3.2-1c0.8-0.7,1.3-1.7,1.2-2.8
		C19.7,17.8,19.7,17.3,19.6,16.9L19.6,16.9z"/>
</g>
</svg>
