<?xml version="1.0" encoding="utf-8"?>
<!-- Generator: Adobe Illustrator 24.0.1, SVG Export Plug-In . SVG Version: 6.00 Build 0)  -->
<svg version="1.1" id="Layer_1" xmlns="http://www.w3.org/2000/svg" xmlns:xlink="http://www.w3.org/1999/xlink" x="0px" y="0px"
	 viewBox="0 0 24 24" style="enable-background:new 0 0 24 24;" xml:space="preserve">
<style type="text/css">
	.st0{fill:#00B98B;}
</style>
<g transform="translate(7.713)">
	<path class="st0" d="M13.7,0H2.6C1.2,0,0,1.2,0,2.6v5.1c0,0.5,0.4,0.9,0.9,0.9c0.5,0,0.9-0.4,0.9-0.9V2.6c0-0.5,0.4-0.9,0.9-0.9
		h11.1c0.5,0,0.9,0.4,0.9,0.9v18.9c0,0.5-0.4,0.9-0.9,0.9H2.6c-0.5,0-0.9-0.4-0.9-0.9v-5.1c0-0.5-0.4-0.9-0.9-0.9
		c-0.5,0-0.9,0.4-0.9,0.9v5.1C0,22.8,1.2,24,2.6,24h11.1c1.4,0,2.6-1.2,2.6-2.6V2.6C16.3,1.2,15.1,0,13.7,0z"/>
</g>
<g transform="translate(0 6.868)">
	<path class="st0" d="M17.1,4.3H2.9l2.8-2.8c0.3-0.3,0.3-0.9,0-1.2s-0.9-0.3-1.2,0l0,0L0.3,4.5C0.2,4.6,0.1,4.7,0.1,4.8
		C-0.1,5.1,0,5.5,0.3,5.7L4.5,10c0.3,0.3,0.9,0.3,1.2,0c0.3-0.3,0.3-0.9,0-1.2l0,0L2.9,6h14.2C17.6,6,18,5.6,18,5.1
		C18,4.7,17.6,4.3,17.1,4.3L17.1,4.3z"/>
</g>
</svg>
