<svg xmlns="http://www.w3.org/2000/svg" width="24.999" height="13.931" viewBox="0 0 24.999 13.931"><defs><style>.a{fill:#f29122;stroke:#f29122;}</style></defs><g transform="translate(-350.5 -398.503)"><g transform="translate(295.324 328.045)"><path class="a" d="M57.127,73.531c0,.6,0,1.078,0,1.558,0,1.054,0,2.108,0,3.162,0,.6-.295.957-.742.947s-.7-.333-.7-.926q-.005-3.162,0-6.324c0-.667.288-.98.959-.985,2.064-.014,4.128-.006,6.192,0a1.186,1.186,0,0,1,.261.031.7.7,0,0,1,.623.772.688.688,0,0,1-.761.628c-1.318.008-2.635,0-3.953,0-.132,0-.264,0-.4,0-.1,0-.22-.014-.263.107-.034.1.053.16.109.224.077.088.158.173.24.257q4.278,4.324,8.557,8.646a1.8,1.8,0,0,0,2.858.041q3.054-3.094,6.118-6.179,1.082-1.092,2.168-2.18a.769.769,0,0,1,.839-.231.667.667,0,0,1,.441.6.882.882,0,0,1-.361.717q-3.153,3.182-6.3,6.365c-.649.655-1.3,1.313-1.954,1.959a3.022,3.022,0,0,1-4.589.017c-1.9-1.863-3.785-3.75-5.676-5.627q-1.652-1.639-3.305-3.276C57.4,73.761,57.311,73.691,57.127,73.531Z"/></g></g></svg>