<svg xmlns="http://www.w3.org/2000/svg" width="20" height="20" viewBox="0 0 20 20"><defs><style>.a{fill:#242424;}.b{fill:none;}</style></defs><g transform="translate(2.083 2.5)"><g transform="translate(0)"><path class="a" d="M118.9,258.582a.34.34,0,0,0-.34-.34h-1.188a.34.34,0,0,0-.34.34v1.188a.34.34,0,0,0,.34.34h1.188a.34.34,0,0,0,.34-.34v-1.188Z" transform="translate(-113.605 -250.307)"/><path class="a" d="M215.539,258.582a.34.34,0,0,0-.34-.34H214.01a.34.34,0,0,0-.34.34v1.188a.34.34,0,0,0,.34.34H215.2a.34.34,0,0,0,.34-.34Z" transform="translate(-207.271 -250.307)"/><path class="a" d="M312.167,258.582a.34.34,0,0,0-.34-.34h-1.188a.34.34,0,0,0-.34.34v1.188a.34.34,0,0,0,.34.34h1.188a.34.34,0,0,0,.34-.34Z" transform="translate(-300.929 -250.307)"/><path class="a" d="M118.9,355.215a.34.34,0,0,0-.34-.34h-1.188a.34.34,0,0,0-.34.34V356.4a.34.34,0,0,0,.34.34h1.188a.34.34,0,0,0,.34-.34v-1.188Z" transform="translate(-113.605 -343.97)"/><path class="a" d="M215.539,355.215a.34.34,0,0,0-.34-.34H214.01a.34.34,0,0,0-.34.34V356.4a.34.34,0,0,0,.34.34H215.2a.34.34,0,0,0,.34-.34Z" transform="translate(-207.271 -343.97)"/><path class="a" d="M312.167,355.215a.34.34,0,0,0-.34-.34h-1.188a.34.34,0,0,0-.34.34V356.4a.34.34,0,0,0,.34.34h1.188a.34.34,0,0,0,.34-.34v-1.188Z" transform="translate(-300.929 -343.97)"/><path class="a" d="M18.773,54.149v1.814a1.482,1.482,0,0,1-1.485,1.481h-.937a1.49,1.49,0,0,1-1.494-1.481V54.142H10.633v1.821a1.49,1.49,0,0,1-1.494,1.481H8.2a1.482,1.482,0,0,1-1.485-1.481V54.149a1.351,1.351,0,0,0-1.306,1.344V66.126a1.351,1.351,0,0,0,1.345,1.353H18.734a1.353,1.353,0,0,0,1.345-1.353V55.492A1.351,1.351,0,0,0,18.773,54.149Zm-.435,11.315a.581.581,0,0,1-.581.581H7.707a.581.581,0,0,1-.581-.581V59.971a.581.581,0,0,1,.581-.581H17.756a.581.581,0,0,1,.581.581v5.493Z" transform="translate(-5.411 -52.478)"/><path class="a" d="M80.059,3.993h.927a.509.509,0,0,0,.509-.509V.509A.509.509,0,0,0,80.986,0h-.927a.509.509,0,0,0-.509.509V3.484A.509.509,0,0,0,80.059,3.993Z" transform="translate(-77.272)"/><path class="a" d="M344.967,3.993h.927a.509.509,0,0,0,.509-.509V.509A.509.509,0,0,0,345.894,0h-.927a.509.509,0,0,0-.509.509V3.484A.509.509,0,0,0,344.967,3.993Z" transform="translate(-334.04)"/></g></g><rect class="b" width="20" height="20"/></svg>