<svg xmlns="http://www.w3.org/2000/svg" width="32.271" height="22" viewBox="0 0 32.271 22"><defs><style>.a{fill:#00b98b;}</style></defs><path class="a" d="M26.383,634.6a2.98,2.98,0,0,0-2.1.867,2.92,2.92,0,0,0,0,4.179,2.991,2.991,0,0,0,2.1.867,2.957,2.957,0,0,0,0-5.914Zm0,4.6a1.643,1.643,0,1,1,0-3.286,1.643,1.643,0,0,1,0,3.286Zm.762-14.45a.638.638,0,0,0-.44-.171H23.334a.659.659,0,0,0-.657.657v5.388a.659.659,0,0,0,.657.657h5.349a.659.659,0,0,0,.657-.657v-3.608a.658.658,0,0,0-.217-.486Zm.881,5.217H23.991v-4.081h2.458l1.577,1.419ZM10.336,634.6a2.98,2.98,0,0,0-2.1.867,2.92,2.92,0,0,0,0,4.179,2.991,2.991,0,0,0,2.1.867,2.957,2.957,0,0,0,0-5.914Zm0,4.6a1.643,1.643,0,1,1,0-3.286,1.643,1.643,0,0,1,0,3.286ZM5.953,635.4H4.633v-1.748a.657.657,0,0,0-1.314,0v2.405a.659.659,0,0,0,.657.657H5.953a.657.657,0,1,0,0-1.314Zm3.332-3.581a.659.659,0,0,0-.657-.657H.657a.657.657,0,1,0,0,1.314H8.628A.655.655,0,0,0,9.285,631.823Zm-7.294-2.372,7.971.046a.663.663,0,0,0,.664-.651.651.651,0,0,0-.651-.664L2,628.137H2a.657.657,0,0,0-.007,1.314Zm1.341-2.983H11.3a.657.657,0,1,0,0-1.314H3.332a.657.657,0,1,0,0,1.314Zm28.7-.887h0l-4.7-3.9a.647.647,0,0,0-.421-.151H21.369v-2.366a.659.659,0,0,0-.657-.657H3.976a.659.659,0,0,0-.657.657v4.81a.657.657,0,0,0,1.314,0v-4.153H20.062V635.4H14.673a.657.657,0,1,0,0,1.314H22.7a.657.657,0,1,0,0-1.314H21.376V622.847h5.3l4.284,3.548-.046,9h-.683a.657.657,0,0,0,0,1.314h1.334a.653.653,0,0,0,.657-.651l.053-9.962A.694.694,0,0,0,32.027,625.581Z" transform="translate(0 -618.51)"/></svg>