<svg xmlns="http://www.w3.org/2000/svg" width="17.622" height="17.623" viewBox="0 0 17.622 17.623"><defs><style>.a{fill:#fff;}</style></defs><path class="a" d="M124.316,1.053a2.7,2.7,0,0,0-3.823,0L109.776,11.77a.6.6,0,0,0-.154.264l-1.409,5.088a.6.6,0,0,0,.739.739l5.088-1.41a.6.6,0,0,0,.264-.154L125.021,5.581a2.706,2.706,0,0,0,0-3.823ZM111.085,12.161l8.772-8.772,2.829,2.829-8.772,8.772Zm-.565,1.134,2.26,2.26-3.126.866Zm13.652-8.563-.637.637-2.829-2.829.637-.637a1.5,1.5,0,0,1,2.124,0l.705.7A1.5,1.5,0,0,1,124.172,4.731Zm0,0" transform="translate(-108.19 -0.261)"/></svg>