<svg xmlns="http://www.w3.org/2000/svg" width="139.975" height="150" viewBox="0 0 139.975 150"><defs><style>.a{fill:#242424;}</style></defs><g transform="translate(-130.352 -47.864)"><path class="a" d="M228.268,135.571c-5.843,10.622-9.233,12.714-25.5,15.681v3.763q0,18.911-.005,37.822a7.231,7.231,0,0,1-.181,2.967c-.412.848-1.475,1.93-2.224,1.907s-1.794-1.145-2.14-2.012a9.357,9.357,0,0,1-.161-3.311c-.006-13.6,0-27.208,0-40.514-5.206-1.628-10.31-2.8-15.048-4.824-4.967-2.124-8.382-6.161-10.235-11.644-5.867,1.811-11.565,3.32-17.074,5.343A16.15,16.15,0,0,0,145.579,151.7c-2.946,10.15-5.474,20.425-8.035,30.683-1.079,4.323-1.682,8.765-2.792,13.079-.245.952-1.724,1.587-2.635,2.368-.617-1.128-1.948-2.41-1.743-3.36,2.865-13.288,5.818-26.559,9-39.774,2.827-11.736,10.5-18.615,22.275-20.837,3.072-.58,4.442-1.9,4.134-5.071a19.5,19.5,0,0,1,.363-4.327c.73-5.563.1-10.323-4.065-14.99-5.917-6.623-5.019-14.108.94-20.806a8.6,8.6,0,0,0,1.684-3.794c.4-1.84.294-3.789.662-5.64.663-3.337,1.228-6.156-1.413-9.44-3.154-3.921.372-9.78,5.669-10a6.668,6.668,0,0,0,5.739-3.031c3.035-4.09,7.409-6.36,12.343-7.465a57.288,57.288,0,0,1,25.546.032,22.2,22.2,0,0,1,13.213,8.524,4.766,4.766,0,0,0,3.206,1.723c3.411.108,6.146,1.068,7.6,4.387,1.4,3.207.316,5.794-1.926,8.209a3.782,3.782,0,0,0-.72,2.607c.116,1.544.738,3.05.849,4.593.331,4.59,1.345,8.6,4.536,12.425,4.206,5.046,3.9,12.218-1.16,17.507-4.6,4.812-4.708,9.9-4.138,15.639.755,7.606.677,7.716,8.153,9.9,8.545,2.5,14.837,7.57,17.21,16.223,3.416,12.451,6.226,25.069,9.273,37.621a21.37,21.37,0,0,1,.981,5.237c-.022,1.3-.917,2.586-1.424,3.878-1.006-.924-2.659-1.7-2.915-2.8-1.945-8.357-3.44-16.82-5.434-25.165-1.473-6.164-3.268-12.273-5.316-18.271-2.125-6.225-6.719-10.132-13.01-11.993C237.639,138.217,233.028,136.933,228.268,135.571Zm-43.8-29.117c7.495-9.516,23.318-9.516,31.977-.148,5.61-5.788,9.126-12.236,6.952-20.747-11.623-5.806-32.355-6.2-44.649-.645a3.269,3.269,0,0,0-1.7,2.005C175.7,94.747,178.9,100.9,184.472,106.454Zm-6.3,29.051c2.881,8.1,15.447,11.664,25.641,10.722,9.979-.923,17.134-5.066,18.5-10.8-6.1-.773-6.136-6.1-7.584-10.989q-14.4,10.809-28.646,0C184.661,129.465,184.515,134.709,178.173,135.506Zm43.476-26.349-.809-.759a22.62,22.62,0,0,1-1.64,2.081,16.136,16.136,0,0,1-2.292,1.935c-2.8,1.945-4.4,1.392-4.769-1.924-.36-3.2-2.237-5.065-5.036-5.4a64.085,64.085,0,0,0-12.225-.249c-3.483.26-5.933,2.082-6.262,6.124-.216,2.671-1.952,3.3-4.263,1.719-1.741-1.19-3.271-2.689-4.894-4.05,3.573,8.129,9.433,13.693,17.922,16.154a10.477,10.477,0,0,0,5.267.129C211.483,122.66,217.456,116.917,221.649,109.157ZM169.372,83.763c20.91-10.07,41.221-10.014,62-.076-.5-2.92-.908-5.089-1.233-7.27-.3-2-1.328-2.719-3.4-2.711-17.619.071-35.238.017-52.856.109-.963,0-2.529.787-2.77,1.54A76.843,76.843,0,0,0,169.372,83.763ZM200.05,69.026q14.53,0,29.06-.007c1.782,0,3.969.169,3.957-2.377-.011-2.294-2.035-2.263-3.738-2.263-19.263-.006-38.525-.046-57.786.091-1.293.009-3.575,1.269-3.674,2.142-.282,2.5,2,2.4,3.789,2.407Q185.854,69.04,200.05,69.026Zm-19.145,55.707c1.307-2.043.945-3.859-.939-5.951a29.254,29.254,0,0,1-7.7-21.146c.093-3.07.015-6.146.015-9.356-9.45,3.7-11.809,11.742-5.983,19.286.748.969,1.6,1.857,2.4,2.792C172.728,115.1,176.754,119.842,180.906,124.733Zm38.311.08,1.026.175c1.747-2.407,3.4-4.891,5.268-7.2,1.956-2.415,4.184-4.609,6.178-7a40.117,40.117,0,0,0,4.8-6.359c3.375-6.255-.706-14.337-7.951-15.9,0,2.583-.11,5.141.02,7.687a31.644,31.644,0,0,1-8.329,23.552C219.243,120.877,219.521,123.1,219.216,124.813Zm1.734-65.434c-4.236-9.221-38.38-8.7-40.866,0Zm-42.887,71.069-6.148-9.745-.841.4c-.211,3.207-.422,6.415-.615,9.344Zm52.374,0c-.239-3.027-.492-6.231-.744-9.433l-.882-.272-5.975,9.705Z"/><path class="a" d="M182.458,250.968a50.8,50.8,0,0,1,.108-7.321c.159-1.084,1.494-2,2.294-2.986.759.919,2.133,1.811,2.174,2.76.218,5.1.22,10.227.006,15.331-.041.974-1.387,1.893-2.132,2.837-.816-.984-2.187-1.891-2.337-2.968A56.063,56.063,0,0,1,182.458,250.968Z" transform="translate(-17.196 -63.726)"/><path class="a" d="M285.155,251.118a53.474,53.474,0,0,1-.1,7.322c-.158,1.129-1.41,2.1-2.166,3.151-.806-.994-2.259-1.956-2.31-2.987-.243-4.99-.242-10.005,0-15,.05-1.017,1.511-1.966,2.322-2.946.753,1.04,2,2.01,2.158,3.133A53.273,53.273,0,0,1,285.155,251.118Z" transform="translate(-49.593 -63.726)"/><path class="a" d="M230.454,135.508c6.257.019,9.2,2.005,9.279,6.255.066,3.737-4.877,7.807-9.434,7.768-4.41-.037-9.227-3.976-9.284-7.592C220.947,137.587,224.027,135.489,230.454,135.508Zm4.732,6.931q-.177-.818-.352-1.637h-8.9l-.459,1.328c1.574.89,3.13,2.442,4.726,2.484C231.844,144.658,233.523,143.226,235.186,142.439Z" transform="translate(-29.967 -28.969)"/></g></svg>