<svg xmlns="http://www.w3.org/2000/svg" width="24" height="22.689" viewBox="0 0 24 22.689"><defs><style>.a{fill:#242424;}</style></defs><g transform="translate(-292.913 -98.646)"><path class="a" d="M303.369,97.663c2.853,0,5.177-.006,7.5,0a4.866,4.866,0,0,1,4.154,2.046,4.429,4.429,0,0,1,.863,2.606c.025,3.127.042,6.255,0,9.382a4.691,4.691,0,0,1-4.809,4.672c-1,.026-2,.022-3,0a1.044,1.044,0,0,0-.911.44q-1.248,1.541-2.531,3.054c-.532.63-.965.626-1.494-.006-.861-1.027-1.72-2.055-2.564-3.1a1.029,1.029,0,0,0-.877-.394,33.771,33.771,0,0,1-3.855-.081,4.584,4.584,0,0,1-3.9-4.227q-.071-5.039,0-10.079a4.606,4.606,0,0,1,3.971-4.225C298.574,97.525,301.239,97.74,303.369,97.663Zm.57,1.526v.022c-2.5,0-5.007-.021-7.51.008a3.061,3.061,0,0,0-3.031,2.9q-.065,4.854,0,9.709a3.1,3.1,0,0,0,3.121,3.033c1.159-.059,2.324,0,3.486-.013a1.678,1.678,0,0,1,1.435.681c.675.856,1.4,1.672,2.086,2.52.253.312.444.351.713.021.677-.831,1.39-1.635,2.056-2.475a1.813,1.813,0,0,1,1.567-.752c1.2.025,2.4,0,3.594,0a2.616,2.616,0,0,0,1.282-.329,3.333,3.333,0,0,0,1.7-3.136c.034-2.914.027-5.829,0-8.744a3.334,3.334,0,0,0-3.585-3.466C308.555,99.259,306.245,99.189,303.939,99.189Z" transform="translate(1 1)"/><path class="a" d="M393.127,138.771c0,.662.011,1.324,0,1.985a1.522,1.522,0,0,1-1.377,1.595,1.44,1.44,0,0,1-1.543-1.4,29.69,29.69,0,0,1-.01-4.305,1.446,1.446,0,0,1,1.522-1.434,1.546,1.546,0,0,1,1.406,1.576C393.141,137.447,393.126,138.109,393.127,138.771Z" transform="translate(-87.063 -33.297)"/><path class="a" d="M392.179,212.412a1.485,1.485,0,0,1-1.477-1.424,1.437,1.437,0,0,1,1.443-1.495,1.484,1.484,0,0,1,1.49,1.466A1.509,1.509,0,0,1,392.179,212.412Z" transform="translate(-87.577 -99.154)"/></g></svg>