<svg xmlns="http://www.w3.org/2000/svg" width="24" height="24" viewBox="0 0 24 24"><defs><style>.a{fill:#242424;}.b{fill:none;}</style></defs><g transform="translate(-1480 -266)"><g transform="translate(1477.589 269)"><g transform="translate(5.411)"><path class="a" d="M119.278,258.65a.408.408,0,0,0-.409-.408h-1.426a.408.408,0,0,0-.408.408v1.426a.408.408,0,0,0,.408.409h1.426a.408.408,0,0,0,.409-.409V258.65Z" transform="translate(-112.919 -248.72)"/><path class="a" d="M215.912,258.65a.408.408,0,0,0-.408-.408h-1.426a.408.408,0,0,0-.408.408v1.426a.408.408,0,0,0,.408.409H215.5a.408.408,0,0,0,.408-.409Z" transform="translate(-205.991 -248.72)"/><path class="a" d="M312.541,258.65a.408.408,0,0,0-.408-.408h-1.426a.408.408,0,0,0-.409.408v1.426a.408.408,0,0,0,.409.409h1.426a.408.408,0,0,0,.408-.409Z" transform="translate(-299.056 -248.72)"/><path class="a" d="M119.278,355.283a.408.408,0,0,0-.409-.408h-1.426a.408.408,0,0,0-.408.408v1.425a.408.408,0,0,0,.408.408h1.426a.408.408,0,0,0,.409-.408v-1.425Z" transform="translate(-112.919 -341.789)"/><path class="a" d="M215.912,355.283a.408.408,0,0,0-.408-.408h-1.426a.408.408,0,0,0-.408.408v1.425a.408.408,0,0,0,.408.408H215.5a.408.408,0,0,0,.408-.408Z" transform="translate(-205.991 -341.789)"/><path class="a" d="M312.541,355.283a.408.408,0,0,0-.408-.408h-1.426a.408.408,0,0,0-.409.408v1.425a.408.408,0,0,0,.409.408h1.426a.408.408,0,0,0,.408-.408v-1.425Z" transform="translate(-299.056 -341.789)"/><path class="a" d="M21.445,54.15v2.177A1.778,1.778,0,0,1,19.663,58.1H18.538a1.787,1.787,0,0,1-1.793-1.777V54.142H11.677v2.185A1.787,1.787,0,0,1,9.885,58.1H8.76a1.778,1.778,0,0,1-1.782-1.777V54.15a1.621,1.621,0,0,0-1.567,1.612V68.523a1.622,1.622,0,0,0,1.613,1.623H21.4a1.623,1.623,0,0,0,1.613-1.623V55.762A1.621,1.621,0,0,0,21.445,54.15Zm-.522,13.578a.7.7,0,0,1-.7.7H8.167a.7.7,0,0,1-.7-.7V61.137a.7.7,0,0,1,.7-.7H20.225a.7.7,0,0,1,.7.7v6.591Z" transform="translate(-5.411 -52.146)"/><path class="a" d="M80.161,4.792h1.112a.611.611,0,0,0,.611-.611V.611A.611.611,0,0,0,81.273,0H80.161a.611.611,0,0,0-.611.611v3.57A.611.611,0,0,0,80.161,4.792Z" transform="translate(-76.816)"/><path class="a" d="M345.069,4.792h1.112a.611.611,0,0,0,.611-.611V.611A.611.611,0,0,0,346.181,0h-1.112a.611.611,0,0,0-.611.611v3.57A.611.611,0,0,0,345.069,4.792Z" transform="translate(-331.956)"/></g></g><rect class="b" width="24" height="24" transform="translate(1480 266)"/></g></svg>