<svg xmlns="http://www.w3.org/2000/svg" width="140.459" height="150" viewBox="0 0 140.459 150"><g transform="translate(-419.851 -51.874)"><path d="M450.347,144.354c2.3,3,4.368,5.729,6.472,8.433q17.058,21.92,34.13,43.828c.274.352.756.716.756,1.075,0,1.268-.165,2.536-.268,3.8-1.146-.331-2.746-.291-3.367-1.052-4.725-5.788-9.262-11.729-13.851-17.628q-10.375-13.339-20.744-26.683c-.605-.778-1.285-1.5-2.051-2.384a20.308,20.308,0,0,0-8.126,11.584c-3.015,10.61-5.744,21.3-8.67,31.937-.516,1.872-.3,5.049-3.315,4.432-3.4-.694-1.686-3.6-1.208-5.541q3.188-12.99,6.659-25.909c2.072-7.723,4.7-15.185,11.474-20.132-2.442-4.691-3.212-4.863-6.819-1.405-4.782,4.581-7,10.627-8.634,16.755-2.778,10.442-5,21.032-7.561,31.533-.476,1.949-.1,5.353-3.362,4.678-3.3-.685-1.65-3.658-1.174-5.609,3.014-12.331,5.87-24.712,9.364-36.911,2.953-10.312,9.435-17.562,20.379-20.113.757-.177,1.63-1.591,1.746-2.517,1.032-8.279,1.934-16.575,2.8-24.874a10.52,10.52,0,0,0-.234-3.911,45.694,45.694,0,0,1,.893-27.972c.6-1.779.573-2.965-.9-4.394a6.19,6.19,0,0,1-1.36-7.391c1.2-2.7,3.3-4.342,6.245-4.232,2.527.094,3.994-.843,5.473-2.865,3.009-4.115,7.357-6.435,12.283-7.558a57.491,57.491,0,0,1,25.217-.115,22.5,22.5,0,0,1,13.8,8.76,4.755,4.755,0,0,0,3.269,1.6c3.435.112,6.1,1.189,7.5,4.524,1.3,3.092.222,5.57-1.846,7.946a3.477,3.477,0,0,0-.649,2.859,47.571,47.571,0,0,1,.8,29.928,8.737,8.737,0,0,0,.137,3.269c.872,8.075,1.851,16.142,2.584,24.23.158,1.74.55,2.545,2.3,2.952,9.623,2.239,16.249,8.254,19,17.523,4.08,13.758,7.364,27.755,10.8,41.7.224.911-1.144,2.213-1.771,3.333-.924-.9-2.422-1.66-2.683-2.723-2.335-9.524-4.29-19.143-6.7-28.646a87.382,87.382,0,0,0-4.82-13.867,28.938,28.938,0,0,0-5.422-7.93c-3.272-3.46-3.984-3.188-6.643,1.277,10.315,8.124,11.207,20.717,14.728,32.074a149.9,149.9,0,0,1,3.771,15.94c.222,1.15-.88,2.555-1.373,3.843-1.016-.921-2.643-1.673-2.954-2.791-2.812-10.091-5.315-20.268-8.073-30.374-1.571-5.751-3.906-11.133-9.345-14.993-3.053,3.918-6.048,7.763-9.045,11.606-5.557,7.124-11.177,14.2-16.652,21.387-3.517,4.616-3.513,3.048-.1,7.7.726.989,1.836,1.82,2.2,2.914a15.532,15.532,0,0,1,.274,4.1c-1.3-.4-3.108-.386-3.821-1.262-5.627-6.923-11.048-14.015-16.528-21.058q-12.534-16.11-25.058-32.229C456.637,142.125,456.661,142.106,450.347,144.354ZM490.4,84.565c-2.878.328-5.786.477-8.619,1.016-8.143,1.551-11.464,6.3-9.937,14.415,1.34,7.116,2.944,14.183,4.538,21.248a4.613,4.613,0,0,0,1.639,2.736c2.726,1.7,5.479,3.562,8.487,4.561,7.714,2.559,16.634-2.715,18.349-10.541,1.312-5.987,2.679-11.967,3.793-17.992,1.5-8.13-1.79-12.867-9.925-14.428C496,85.057,493.206,84.9,490.4,84.565Zm16.11,71.264.816.424c1.31-2.347,3.8-4.729,3.734-7.034-.371-12.49,3.094-24.016,7.68-35.356,4.368-10.8,5.544-21.721,1.63-32.97-.838-2.41-1.976-3.218-4.52-3.2q-25.6.167-51.193,0c-2.54-.017-3.687.783-4.526,3.195-3.955,11.369-2.667,22.36,1.748,33.278,4.283,10.591,7.978,21.391,7.338,33.028-.23,4.2,2.222,6.3,5.158,9.505-.452-9.436-.279-18.06-1.421-26.505-1.356-10.026-3.985-19.873-5.8-29.845-1.791-9.817,2.674-16.541,12.345-19a43.065,43.065,0,0,1,21.842.075c9.3,2.446,13.614,9.119,12.084,18.607a100.232,100.232,0,0,1-2.2,10.808C507.141,125.583,506.148,140.63,506.509,155.828Zm23.624-11.366c-6.062-2.468-6.25-2.39-9.621,1.962-8.454,10.915-16.891,21.844-25.462,32.666-1.449,1.828-1.786,3.139-.013,4.782a34.463,34.463,0,0,1,2.345,2.695Zm-40.045-71.43q13.695,0,27.391,0a6.768,6.768,0,0,0,2.643-.087,15.831,15.831,0,0,0,2.857-2.165,17.362,17.362,0,0,0-2.71-2.314c-.594-.337-1.524-.088-2.3-.088q-27.726,0-55.452,0c-.779,0-1.713-.25-2.3.089a17.3,17.3,0,0,0-2.695,2.329,12.708,12.708,0,0,0,2.542,2.131,6.6,6.6,0,0,0,2.64.1Q476.392,73.035,490.088,73.033Zm-2.24,100.87c0-10.162.022-19.68-.06-29.2a2.182,2.182,0,0,0-1.358-1.509c-2.452-.659-4.956-1.119-7.866-1.742C478.9,152.915,477.519,164.58,487.848,173.9Zm14.094-32.524a47.037,47.037,0,0,1-6.549,1.5c-2.393.2-2.847,1.348-2.823,3.47.091,8.245.027,16.491.054,24.737a17.633,17.633,0,0,0,.4,2.526C502.966,164.514,501.584,152.9,501.942,141.379ZM469.384,63.263h41.557C503.6,54.42,477.607,54.35,469.384,63.263Zm-10.171,56.661-1.282.1-1.23,17.9,7.527-1.69Zm57.033,16.38,7.577,1.511c-.469-6.281-.9-12.046-1.331-17.811l-1.221-.063Zm-27.834,1.939c-.69-1.894-.8-3.969-1.774-4.524-2.555-1.453-5.488-2.243-8.288-3.3C477.733,136.076,479.895,137.941,488.413,138.242Zm4.6-.108c7.48.012,10.218-2.373,8.885-7.67a38.273,38.273,0,0,1-6.122,2.484C492.778,133.619,491.927,135.119,493.014,138.134Z"/><path d="M477.1,262.172a21.037,21.037,0,0,1-.094,4.645c-.2.852-1.492,2.179-2.028,2.063-.93-.2-2.28-1.3-2.355-2.118a52.747,52.747,0,0,1-.012-9.317c.074-.848,1.453-1.581,2.234-2.367.76.808,1.944,1.509,2.181,2.45a19.39,19.39,0,0,1,.1,4.644Z" transform="translate(-17.372 -67.16)"/><path d="M570.491,261.887a16.728,16.728,0,0,1,.093-4.31c.263-.957,1.4-1.674,2.14-2.5.8.77,2.2,1.485,2.278,2.318a52.812,52.812,0,0,1,0,9.317c-.074.834-1.482,1.55-2.278,2.32-.743-.826-1.9-1.55-2.135-2.5A19.793,19.793,0,0,1,570.491,261.887Z" transform="translate(-49.755 -67.16)"/></g></svg>