<svg xmlns="http://www.w3.org/2000/svg" width="19.161" height="16.627" viewBox="0 0 19.161 16.627"><defs><style>.a{fill:#00b98b;}</style></defs><g transform="translate(0 0)"><g transform="translate(0 7.39)"><path class="a" d="M18.412,236H.748a.944.944,0,0,0,0,1.847H18.412a.944.944,0,0,0,0-1.847Z" transform="translate(0 -236)"/></g><path class="a" d="M18.412,76H.748a.944.944,0,0,0,0,1.847H18.412a.944.944,0,0,0,0-1.847Z" transform="translate(0 -76)"/><g transform="translate(0 14.78)"><g transform="translate(0 0)"><path class="a" d="M18.412,396H.748a.944.944,0,0,0,0,1.848H18.412a.944.944,0,0,0,0-1.848Z" transform="translate(0 -396)"/></g></g></g></svg>