<svg xmlns="http://www.w3.org/2000/svg" width="23.999" height="24" viewBox="0 0 23.999 24"><defs><style>.a{fill:#242424;}</style></defs><g transform="translate(7.713)"><path class="a" d="M167.3,0H156.16a2.571,2.571,0,0,0-2.571,2.571V7.714a.857.857,0,1,0,1.714,0V2.571a.857.857,0,0,1,.857-.857H167.3a.857.857,0,0,1,.857.857V21.429a.857.857,0,0,1-.857.857H156.16a.857.857,0,0,1-.857-.857V16.286a.857.857,0,1,0-1.714,0v5.143A2.571,2.571,0,0,0,156.16,24H167.3a2.571,2.571,0,0,0,2.571-2.571V2.571A2.571,2.571,0,0,0,167.3,0Z" transform="translate(-153.589)"/></g><g transform="translate(0 6.868)"><path class="a" d="M17.152,141.019H2.936L5.758,138.2a.857.857,0,0,0-1.212-1.212L.261,141.27a.847.847,0,0,0-.185.279.86.86,0,0,0,.186.934l4.286,4.286a.857.857,0,1,0,1.233-1.191l-.021-.021-2.823-2.823H17.152a.857.857,0,1,0,0-1.714Z" transform="translate(-0.011 -136.744)"/></g></svg>