<svg xmlns="http://www.w3.org/2000/svg" width="22.997" height="26" viewBox="0 0 22.997 26"><defs><style>.a{fill:none;stroke:#242424;stroke-width:2px;}</style></defs><g transform="translate(2.322 3)"><path class="a" d="M92.331,10.6a5.127,5.127,0,0,0,3.747-1.552A5.127,5.127,0,0,0,97.629,5.3a5.128,5.128,0,0,0-1.552-3.746,5.3,5.3,0,0,0-7.493,0A5.127,5.127,0,0,0,87.032,5.3a5.127,5.127,0,0,0,1.553,3.747A5.128,5.128,0,0,0,92.331,10.6Zm0,0" transform="translate(-83.292 -2)"/><path class="a" d="M20.946,253.606a11.528,11.528,0,0,0-.2-1.39,9.83,9.83,0,0,0-.391-1.4,6.5,6.5,0,0,0-.657-1.3,5.062,5.062,0,0,0-.991-1.129,4.5,4.5,0,0,0-1.424-.782,5.554,5.554,0,0,0-1.818-.288,2,2,0,0,0-.985.365c-.3.168-.641.363-1.026.578a6.334,6.334,0,0,1-1.328.511,5.864,5.864,0,0,1-3.248,0,6.318,6.318,0,0,1-1.327-.511c-.382-.213-.728-.408-1.027-.579a2,2,0,0,0-.985-.365,5.546,5.546,0,0,0-1.817.288,4.5,4.5,0,0,0-1.424.782,5.062,5.062,0,0,0-.991,1.129,6.509,6.509,0,0,0-.657,1.3,9.852,9.852,0,0,0-.391,1.4,11.487,11.487,0,0,0-.2,1.391c-.033.421-.05.858-.05,1.3a3.427,3.427,0,0,0,1.241,2.764,4.858,4.858,0,0,0,3.2,1.02H16.558a4.857,4.857,0,0,0,3.2-1.02A3.426,3.426,0,0,0,21,254.906c0-.443-.017-.881-.051-1.3Zm0,0" transform="translate(-1.321 -236.689)"/></g></svg>